<svg xmlns="http://www.w3.org/2000/svg" xmlns:xlink="http://www.w3.org/1999/xlink" version="1.1" x="0px" y="0px" viewBox="0 0 100 125" enable-background="new 0 0 100 100" xml:space="preserve"><path d="M79.964,18.141c-0.013-0.105-0.022-0.211-0.046-0.312c-0.004-0.018-0.003-0.037-0.008-0.056  c-0.017-0.066-0.047-0.124-0.068-0.188c-0.034-0.108-0.067-0.217-0.114-0.318c-0.039-0.088-0.088-0.168-0.135-0.25  c-0.049-0.085-0.095-0.17-0.151-0.25c-0.061-0.084-0.129-0.16-0.196-0.237c-0.059-0.066-0.115-0.134-0.179-0.195  c-0.076-0.073-0.159-0.136-0.242-0.2c-0.069-0.053-0.137-0.107-0.211-0.155c-0.088-0.057-0.183-0.103-0.276-0.15  c-0.078-0.038-0.153-0.079-0.235-0.112c-0.104-0.041-0.211-0.069-0.32-0.1c-0.078-0.021-0.154-0.045-0.235-0.061  c-0.12-0.021-0.243-0.029-0.366-0.037C77.119,15.515,77.062,15.5,77,15.5c-0.018,0-0.034,0.005-0.052,0.006  c-0.108,0.002-0.216,0.018-0.325,0.032c-0.098,0.013-0.196,0.021-0.291,0.042c-0.02,0.005-0.04,0.004-0.06,0.01l-36,9  c-0.069,0.017-0.13,0.049-0.197,0.07c-0.104,0.034-0.21,0.066-0.309,0.111c-0.088,0.039-0.169,0.089-0.251,0.137  c-0.085,0.049-0.171,0.095-0.251,0.151c-0.081,0.059-0.154,0.124-0.229,0.189c-0.07,0.062-0.142,0.121-0.206,0.188  c-0.066,0.071-0.125,0.148-0.185,0.225c-0.059,0.076-0.119,0.15-0.171,0.231c-0.051,0.08-0.092,0.164-0.135,0.249  c-0.045,0.087-0.091,0.173-0.127,0.266c-0.036,0.092-0.061,0.188-0.088,0.283c-0.025,0.09-0.053,0.179-0.07,0.273  c-0.02,0.107-0.025,0.219-0.033,0.329C38.016,27.363,38,27.43,38,27.5v34.623c-1.768-1.025-3.813-1.623-6-1.623  c-6.617,0-12,5.383-12,12s5.383,12,12,12s12-5.383,12-12V44.843l30-7.5v18.78c-1.768-1.025-3.813-1.623-6-1.623  c-6.617,0-12,5.383-12,12s5.383,12,12,12s12-5.383,12-12v-48c0-0.02-0.006-0.039-0.006-0.059  C79.992,18.342,79.977,18.24,79.964,18.141z M32,78.5c-3.309,0-6-2.691-6-6s2.691-6,6-6s6,2.691,6,6S35.309,78.5,32,78.5z   M44,38.657v-8.814l30-7.5v8.814L44,38.657z M68,72.5c-3.309,0-6-2.691-6-6s2.691-6,6-6s6,2.691,6,6S71.309,72.5,68,72.5z"/><text x="0" y="115" fill="#000000" font-size="5px" font-weight="bold" font-family="'Helvetica Neue', Helvetica, Arial-Unicode, Arial, Sans-serif">Created by Yorlmar Campos</text><text x="0" y="120" fill="#000000" font-size="5px" font-weight="bold" font-family="'Helvetica Neue', Helvetica, Arial-Unicode, Arial, Sans-serif">from the Noun Project</text></svg>