<svg xmlns="http://www.w3.org/2000/svg" xmlns:xlink="http://www.w3.org/1999/xlink" version="1.1" x="0px" y="0px" viewBox="0 0 100 125" enable-background="new 0 0 100 100" xml:space="preserve"><path d="M65,6.479H35c-5.522,0-10,4.478-10,10v67.041c0,5.522,4.478,10,10,10h30c5.522,0,10-4.478,10-10V16.479  C75,10.957,70.522,6.479,65,6.479z M41,12.393h18c0.414,0,0.75,0.336,0.75,0.75s-0.336,0.75-0.75,0.75H41  c-0.414,0-0.75-0.336-0.75-0.75S40.586,12.393,41,12.393z M50.667,91.144c-1.979,0-3.583-1.605-3.583-3.584s1.604-3.584,3.583-3.584  c1.979,0,3.584,1.605,3.584,3.584S52.646,91.144,50.667,91.144z M70,80.43H30V19.57h40V80.43z"/><text x="0" y="115" fill="#000000" font-size="5px" font-weight="bold" font-family="'Helvetica Neue', Helvetica, Arial-Unicode, Arial, Sans-serif">Created by Rob Armes</text><text x="0" y="120" fill="#000000" font-size="5px" font-weight="bold" font-family="'Helvetica Neue', Helvetica, Arial-Unicode, Arial, Sans-serif">from the Noun Project</text></svg>